<svg id="Layer_1" data-name="Layer 1" xmlns="http://www.w3.org/2000/svg" xmlns:xlink="http://www.w3.org/1999/xlink" viewBox="0 0 54.05 54.05"><defs><style>.cls-1{fill:#e4ac1a;}.cls-2{fill:url(#linear-gradient);}.cls-3{fill:url(#linear-gradient-2);}.cls-4{fill:url(#linear-gradient-3);}.cls-5{fill:#b7b9bb;}.cls-6{fill:url(#linear-gradient-4);}.cls-7{fill:url(#linear-gradient-5);}.cls-8{fill:url(#linear-gradient-6);}.cls-9{fill:url(#linear-gradient-7);}.cls-10{fill:url(#linear-gradient-8);}.cls-11{fill:url(#linear-gradient-9);}.cls-12{fill:url(#linear-gradient-10);}.cls-13{fill:url(#linear-gradient-11);}.cls-14{fill:url(#linear-gradient-12);}.cls-15{fill:url(#linear-gradient-13);}.cls-16{fill:url(#linear-gradient-14);}.cls-17{fill:url(#linear-gradient-15);}.cls-18{fill:url(#linear-gradient-16);}.cls-19{fill:url(#linear-gradient-17);}.cls-20{fill:url(#linear-gradient-18);}.cls-21{fill:url(#linear-gradient-19);}.cls-22{fill:url(#linear-gradient-20);}.cls-23{fill:url(#linear-gradient-21);}.cls-24{fill:url(#linear-gradient-22);}.cls-25{fill:url(#linear-gradient-23);}.cls-26{fill:url(#linear-gradient-24);}.cls-27{fill:url(#linear-gradient-25);}.cls-28{fill:url(#linear-gradient-26);}.cls-29{fill:url(#linear-gradient-27);}.cls-30{fill:url(#linear-gradient-28);}.cls-31{fill:url(#linear-gradient-29);}.cls-32{fill:url(#linear-gradient-30);}.cls-33{fill:url(#linear-gradient-31);}</style><linearGradient id="linear-gradient" x1="335.21" y1="271.12" x2="334.6" y2="272.87" gradientUnits="userSpaceOnUse"><stop offset="0" stop-color="#f3d211"/><stop offset="0.86" stop-color="#e4ac1a"/></linearGradient><linearGradient id="linear-gradient-2" x1="336.5" y1="274.32" x2="335.07" y2="270.13" gradientUnits="userSpaceOnUse"><stop offset="0" stop-color="#e4ac1a"/><stop offset="1" stop-color="#fdec00"/></linearGradient><linearGradient id="linear-gradient-3" x1="337.78" y1="254.86" x2="349.03" y2="294.19" gradientTransform="translate(8.34 12.84) rotate(1.99)" gradientUnits="userSpaceOnUse"><stop offset="0" stop-color="#e4ac1a"/><stop offset="1" stop-color="#c20d19"/></linearGradient><linearGradient id="linear-gradient-4" x1="310.24" y1="292.01" x2="316.75" y2="289.92" gradientTransform="matrix(1, 0, 0, 1, 0, 0)" xlink:href="#linear-gradient-3"/><linearGradient id="linear-gradient-5" x1="345.33" y1="283.27" x2="336.6" y2="286.52" gradientTransform="matrix(1, 0, 0, 1, 0, 0)" xlink:href="#linear-gradient-3"/><linearGradient id="linear-gradient-6" x1="352.21" y1="285.66" x2="344.69" y2="285.43" gradientTransform="matrix(1, 0, 0, 1, 0, 0)" xlink:href="#linear-gradient-3"/><linearGradient id="linear-gradient-7" x1="329" y1="286.17" x2="323.09" y2="287.41" gradientTransform="matrix(1, 0, 0, 1, 0, 0)" xlink:href="#linear-gradient-3"/><linearGradient id="linear-gradient-8" x1="340.56" y1="285.62" x2="325.01" y2="287.61" gradientTransform="matrix(1, 0, 0, 1, 0, 0)" xlink:href="#linear-gradient-3"/><linearGradient id="linear-gradient-9" x1="310.06" y1="294.2" x2="324.84" y2="305.52" gradientTransform="matrix(1, 0, 0, 1, 0, 0)" xlink:href="#linear-gradient-3"/><linearGradient id="linear-gradient-10" x1="14.55" y1="32.59" x2="8.35" y2="27.59" gradientTransform="matrix(1, 0, 0, 1, 0, 0)" xlink:href="#linear-gradient-3"/><linearGradient id="linear-gradient-11" x1="324.72" y1="306.99" x2="314.85" y2="297.76" gradientTransform="matrix(1, 0, 0, 1, 0, 0)" xlink:href="#linear-gradient-3"/><linearGradient id="linear-gradient-12" x1="330.38" y1="230.13" x2="323.92" y2="225.26" gradientTransform="translate(-275.87 -224.71) rotate(6.67)" xlink:href="#linear-gradient-3"/><linearGradient id="linear-gradient-13" x1="338.67" y1="319.39" x2="323.99" y2="305.81" gradientTransform="matrix(1, 0, 0, 1, 0, 0)" xlink:href="#linear-gradient-3"/><linearGradient id="linear-gradient-14" x1="341.37" y1="306.9" x2="337.26" y2="294.75" gradientTransform="matrix(1, 0, 0, 1, 0, 0)" xlink:href="#linear-gradient-3"/><linearGradient id="linear-gradient-15" x1="342.59" y1="318.68" x2="338.11" y2="312" gradientUnits="userSpaceOnUse"><stop offset="0" stop-color="#f3d211"/><stop offset="1" stop-color="#e4ac1a"/></linearGradient><linearGradient id="linear-gradient-16" x1="350.49" y1="331.8" x2="332.42" y2="285.72" gradientTransform="matrix(1, 0, 0, 1, 0, 0)" xlink:href="#linear-gradient-3"/><linearGradient id="linear-gradient-17" x1="346.14" y1="290.74" x2="274.02" y2="337.13" xlink:href="#linear-gradient-15"/><linearGradient id="linear-gradient-18" x1="352.84" y1="285.64" x2="343.91" y2="291.62" gradientUnits="userSpaceOnUse"><stop offset="0" stop-color="#fdec00"/><stop offset="1" stop-color="#e4ac1a"/></linearGradient><linearGradient id="linear-gradient-19" x1="324.44" y1="308.19" x2="300.94" y2="325.9" gradientTransform="matrix(1, 0, 0, 1, 0, 0)" xlink:href="#linear-gradient-3"/><linearGradient id="linear-gradient-20" x1="369.42" y1="278.7" x2="294.23" y2="331.33" gradientTransform="matrix(1, 0, 0, 1, 0, 0)" xlink:href="#linear-gradient-3"/><linearGradient id="linear-gradient-21" x1="332.41" y1="301.07" x2="317.47" y2="310.1" gradientUnits="userSpaceOnUse"><stop offset="0" stop-color="#e0a31b"/><stop offset="1" stop-color="#fdec00"/></linearGradient><linearGradient id="linear-gradient-22" x1="330.13" y1="271.85" x2="339.96" y2="304.29" gradientUnits="userSpaceOnUse"><stop offset="0" stop-color="#f3d211"/><stop offset="1" stop-color="#e8b618"/></linearGradient><linearGradient id="linear-gradient-23" x1="322.69" y1="287.76" x2="337.46" y2="268.38" gradientTransform="matrix(1, 0, 0, 1, 0, 0)" xlink:href="#linear-gradient-3"/><linearGradient id="linear-gradient-24" x1="307.48" y1="312.84" x2="335.75" y2="275.77" gradientUnits="userSpaceOnUse"><stop offset="0" stop-color="#e0a31b"/><stop offset="1" stop-color="#c20d19"/></linearGradient><linearGradient id="linear-gradient-25" x1="312" y1="290.86" x2="308.5" y2="292.55" xlink:href="#linear-gradient-21"/><linearGradient id="linear-gradient-26" x1="309.05" y1="293.61" x2="331.06" y2="293.61" gradientUnits="userSpaceOnUse"><stop offset="0" stop-color="#f7de66"/><stop offset="1" stop-color="#e4ac1a"/></linearGradient><linearGradient id="linear-gradient-27" x1="326.37" y1="280.67" x2="311.56" y2="306.44" gradientUnits="userSpaceOnUse"><stop offset="0" stop-color="#f0cb4d"/><stop offset="1" stop-color="#fdec00"/></linearGradient><linearGradient id="linear-gradient-28" x1="335.72" y1="292.52" x2="329.46" y2="265.13" gradientUnits="userSpaceOnUse"><stop offset="0" stop-color="#f7de66"/><stop offset="1" stop-color="#fdec00"/></linearGradient><linearGradient id="linear-gradient-29" x1="358.38" y1="282.48" x2="356.73" y2="284.48" gradientUnits="userSpaceOnUse"><stop offset="0" stop-color="#f3d211"/><stop offset="0.31" stop-color="#ecc015"/><stop offset="0.69" stop-color="#e6b119"/><stop offset="1" stop-color="#e4ac1a"/></linearGradient><linearGradient id="linear-gradient-30" x1="357.4" y1="282.49" x2="362.3" y2="286.73" gradientUnits="userSpaceOnUse"><stop offset="0" stop-color="#f3d211"/><stop offset="1" stop-color="#fdec00"/></linearGradient><linearGradient id="linear-gradient-31" x1="336.71" y1="313.88" x2="343.15" y2="320.14" xlink:href="#linear-gradient-28"/></defs><title>logo-cruzeiro_icon</title><path class="cls-1" d="M347.46,317c-.83-2.22-1.84-5-2.7-7.8-1.62-5.33-3-10.47-2.92-10.49,1-.69,10.29-7,17-10.8.11-.06,2.07-1.16,2.26-2.53a2.44,2.44,0,0,0-.12-1.11c-.33-1-1.18-1.9-3.56-2a67.62,67.62,0,0,0-8.73-.14,82.31,82.31,0,0,0-10.1,1s-1.12-6.89-1.53-9.72a5.69,5.69,0,0,0-.5-1.71,2.26,2.26,0,0,0-1.56-1,2.37,2.37,0,0,0-1.87.37,6.8,6.8,0,0,0-1.18,1.41c-1.8,2.52-6.85,10-9.37,14.23,0,0-7.86,2.42-12.64,4.41-1.41.59-1.55,1.29-1.58,1.67s0,1,1.1,1.93c1.39,1.18,5.77,4.79,5.77,4.79-1.54,2.45-7.5,14.59-8.07,18a3.51,3.51,0,0,0,.55,2.91,2.78,2.78,0,0,0,2.07,1c1,0,2.4-1.06,3-1.48,4.74-3.39,14-10.49,14-10.49,3.48,3.13,10.84,9.88,14.74,13.49.45.42,1.89,1.76,3.29,1.78a3.56,3.56,0,0,0,3.65-3A10.2,10.2,0,0,0,347.46,317Zm-36.19-23.79c-.11-.09-.46-.35-.44-.71a.66.66,0,0,1,.32-.47,2.69,2.69,0,0,1,.43-.2,87,87,0,0,1,9.5-2.84c-1.29,2.26-2.16,3.67-2.76,4.72-1.4,2.45-1.39,2.54-2,3.54C316.36,297.26,312.27,294,311.27,293.22Zm2.25,19.54c-.12.08-.61.41-.74.48-1,.51-1.26-.12-1.33-.38a3.18,3.18,0,0,1,.35-1.53c1-2.16,5-10.61,5-10.61S321.75,305,323,306C323,306,315.82,311.19,313.52,312.76Zm25.6-3.12c.82,2.83,1.77,5.78,2.23,7.22a1.23,1.23,0,0,1,0,1c-.12.21-.37.29-.7.14a4.07,4.07,0,0,1-.57-.41l-11.16-9.81L337,302S338.06,306,339.12,309.64Zm-14-5.19s-6.78-5.63-7.14-5.94c0,0,4.29-8,5.63-10.08.82-.23,7.11-1.39,10.08-1.74,0,0,.88,4.88,2.2,10.5C335.85,297.19,327.13,303,325.08,304.45Zm18.84-18.71c2.91-.14,6-.16,6.22-.16.74,0,1.34.08,1.46.4s-.18.9-.71,1.28l-3.74,2.49c-2.86,1.93-6.45,4.28-6.45,4.28s-1.37-6.25-1.63-7.94C339.07,286.09,341.46,285.86,343.92,285.74Zm-13.2-8.23c.07-.08.54-.68.89-.68s.48.42.52.66c.09.53.2,1.3.4,2.55.3,1.84.66,4,.66,4-1.94.38-6.58,1.46-8.11,1.9C326.71,283.22,329.74,278.77,330.72,277.51Z" transform="translate(-307.05 -270.54)"/><path class="cls-2" d="M331.93,272.71s.46-.67.74-1a2.27,2.27,0,0,1,4.09,1.11c0,.21.14,1,.17,1.18Z" transform="translate(-307.05 -270.54)"/><path class="cls-3" d="M336.93,274h0c0-.22-.14-1-.17-1.18a2.21,2.21,0,0,0-2.21-2h0c.63.21,1.18,1.43,1.25,2.06,0,.29.07.59.12.89a30.83,30.83,0,0,0,.9,4A21.9,21.9,0,0,0,336.93,274Z" transform="translate(-307.05 -270.54)"/><path class="cls-4" d="M336.54,275.19l.44-.08c.95,7.56,3.39,19.13,3.39,19.13l-.49.32S337.52,282.93,336.54,275.19Z" transform="translate(-307.05 -270.54)"/><path class="cls-5" d="M340.7,294Z" transform="translate(-307.05 -270.54)"/><path class="cls-6" d="M311.36,291.43c-.29.13-.42.62-.42.62a1.87,1.87,0,0,1,.64-.35,83.16,83.16,0,0,1,9.59-2.85l.35-.56A74.76,74.76,0,0,0,311.36,291.43Z" transform="translate(-307.05 -270.54)"/><path class="cls-7" d="M343.92,285.74l2.32-.09.31-3.46a78.28,78.28,0,0,0-8,.87l.5,3S341.46,285.86,343.92,285.74Z" transform="translate(-307.05 -270.54)"/><path class="cls-8" d="M351.42,285.52s-.39-.55-1.66-.59c-3.82,0-7.44.18-10.8.48l.08.51c3.36-.31,6.95-.49,10.72-.49A15.81,15.81,0,0,1,351.42,285.52Z" transform="translate(-307.05 -270.54)"/><path class="cls-5" d="M340.7,294Z" transform="translate(-307.05 -270.54)"/><path class="cls-9" d="M329.62,284.78c-1.8.42-3.67.88-4.54,1.12l-1.51,2.53c.52-.15,3.29-.68,6-1.13Z" transform="translate(-307.05 -270.54)"/><path class="cls-10" d="M324,287.71l-.35.57c2.91-.64,6.26-1.26,10-1.76l-.08-.5C330,286.5,326.79,287.09,324,287.71Z" transform="translate(-307.05 -270.54)"/><path class="cls-11" d="M309.58,293.24c-.5-.44-.75-.64-.84-.88a1.16,1.16,0,0,1-.05-.2,1.65,1.65,0,0,0-.15.54,1.57,1.57,0,0,0,0,.47h0a1.74,1.74,0,0,0,.14.38,1.7,1.7,0,0,0,.45.57l6.16,5.1.45-.83Z" transform="translate(-307.05 -270.54)"/><polygon class="cls-12" points="9.75 30.18 10.89 27.97 15.66 31.94 14.25 34.03 9.75 30.18"/><path class="cls-13" d="M317.32,299.71l-.42.81s2.7,2.2,6.3,5.33l.68-.5C320.32,302.27,317.32,299.71,317.32,299.71Z" transform="translate(-307.05 -270.54)"/><polygon class="cls-14" points="19.69 38.78 21.89 37.2 28.71 43.19 26.49 44.96 19.69 38.78"/><path class="cls-15" d="M339.49,320.64a80.63,80.63,0,0,0-6.17-6.52c-1.46-1.35-3.22-3.37-5.64-5.47l-.72.52c4.4,3.93,9.26,8.4,12.51,11.48Z" transform="translate(-307.05 -270.54)"/><path class="cls-16" d="M341.83,298.72,337,302h0c.1.38,1.11,4.18,2.11,7.6.09.32.18.65.28,1h0l5.23-1.79C343.14,303.85,341.9,299.12,341.83,298.72Z" transform="translate(-307.05 -270.54)"/><path class="cls-17" d="M335.74,314.06v0a54.22,54.22,0,0,0,4.77,5.1c1.68,1.27,2.43.68,2.57-.24.47-3-4.43-11.77-4.43-11.77.07.27,2.46,8.25,2.9,9.63h0a1.78,1.78,0,0,1,.1.59h0a1.12,1.12,0,0,1-.08.45h0a.69.69,0,0,1-.28.33h0a.61.61,0,0,1-.3.08h0a.9.9,0,0,1-.43-.12h0a1.86,1.86,0,0,1-.48-.34h0C339.49,317.28,337.72,315.8,335.74,314.06Z" transform="translate(-307.05 -270.54)"/><path class="cls-18" d="M347.76,318.86c-2.46-5.79-5-15.3-6.28-19.9l-.39.27c1,4.7,3.57,14.43,5.4,19.7a3.81,3.81,0,0,1,.2,1.53,5.83,5.83,0,0,1-.15,1,3.35,3.35,0,0,1-.28.73,3.5,3.5,0,0,1-1.09,1.29,3,3,0,0,1-1.6.55,3.65,3.65,0,0,0,1,.16h.12a3.2,3.2,0,0,0,2.08-.69,3.57,3.57,0,0,0,1-1.37,3.45,3.45,0,0,0,.23-.74,6.3,6.3,0,0,0,.08-1A3.88,3.88,0,0,0,347.76,318.86Z" transform="translate(-307.05 -270.54)"/><path class="cls-19" d="M313.42,315.13c1.5-.88,35.89-25.45,37.92-26.85,1.68-1.15,1.89-2.14,1.6-2.53s-.83-.76-3-.81h0a3.37,3.37,0,0,1,1.46.57c1.22.77-.63,2.14-.63,2.14s-3.15,2.15-7.72,5.15c-3.65,2.4-8.25,5.31-12.65,8.35-8,5.51-16.18,11.65-17.63,12.41-1.21.64-1.74-.3-1.6-1C310.63,313.88,309.36,317.51,313.42,315.13Z" transform="translate(-307.05 -270.54)"/><path class="cls-20" d="M352.41,286.59c.25-.95-1-1.07-1-1.07,1.22.77-.63,2.14-.63,2.14L346,290.87S352.12,287.71,352.41,286.59Z" transform="translate(-307.05 -270.54)"/><path class="cls-21" d="M332.79,303.43c-1.9,1.26-3.6,2.44-4.92,3.42-7.12,5.3-13.23,9.88-16.39,12.26a2.7,2.7,0,0,1-3.13.55,2.18,2.18,0,0,1-1-1,2.51,2.51,0,0,0,1.3,2,2.71,2.71,0,0,0,3.13-.55c3-2.25,5.77-4.4,10.37-7.86l10.63-8.81Z" transform="translate(-307.05 -270.54)"/><path class="cls-22" d="M351.92,291.45v-.06c-3.3,2-11.44,7-16.28,10.47-3.93,2.84-9.19,7-11.83,9.07V311l4.21-3.12C337.33,301.15,347.82,294.12,351.92,291.45Z" transform="translate(-307.05 -270.54)"/><path class="cls-23" d="M314.7,312.82c1.7-.92,4.44-3,8-5.57.89-.64,6.1-4.57,7.08-5.66-7.81,5.4-15.59,11.24-17,12l-.1.05C312.81,313.66,313.23,313.63,314.7,312.82Z" transform="translate(-307.05 -270.54)"/><path class="cls-24" d="M336.2,297c-2.57-11.37-3.45-17.49-3.74-19.53-.08-.58-.29-.78-.56-.82a1.06,1.06,0,0,1,1.34.44c.15.22,1,4.92,1.92,9.63s2.41,9.44,2.41,9.44Z" transform="translate(-307.05 -270.54)"/><path class="cls-25" d="M331.37,276.55a.64.64,0,0,0-.72.2c-.25.36-1.95,2.12-6.18,9.23l0,0c1.12-1.7,4.93-7.41,6.23-8.88C330.72,277.12,331.05,276.58,331.37,276.55Z" transform="translate(-307.05 -270.54)"/><path class="cls-26" d="M312,310.27c.56-1.36,2.91-7,5.2-11.22s4.31-7.63,5.13-9l0,0c-1.47,2.74-7.78,14.58-10.35,20.23Z" transform="translate(-307.05 -270.54)"/><path class="cls-27" d="M308.57,293.06h0v-.13h0a1.59,1.59,0,0,1,1-1.29h0c1.54-.67,3.48-1.49,4.29-1.85l0-.06c-1.54.55-3.05,1.13-4.3,1.68h0a1.56,1.56,0,0,0-1,1.29h0a.49.49,0,0,0,0,.12h0a1.34,1.34,0,0,0,0,.35Z" transform="translate(-307.05 -270.54)"/><path class="cls-28" d="M309.05,313c.5-.92,8-14.69,10.59-19.33s9.94-17,11.42-19.44l0,0c-4,5.76-8,11.82-11.38,17.75-1.78,3.15-3.47,6.22-5,9.07-1.71,3.25-3.19,6.22-4.31,8.71-.53,1.2-.95,2.29-1.33,3.26Z" transform="translate(-307.05 -270.54)"/><path class="cls-29" d="M314.68,301.06h0c.47-.89,4.42-8.23,5.79-10.47,1.49-2.64,4.09-6.69,4.56-7.42h0c-.52.93-3.88,7-5.19,9.2C318.69,294.36,315.15,300.28,314.68,301.06Z" transform="translate(-307.05 -270.54)"/><path class="cls-30" d="M331.9,276.61c.27,0,.48.24.56.82.27,1.93,1.08,7.51,3.34,17.74h0c-.3-1.83-2.77-16-3.06-17.89C332.62,276.4,331.9,276.61,331.9,276.61Z" transform="translate(-307.05 -270.54)"/><path class="cls-31" d="M353.24,282.23l1.86.06,2.63.18s2.43.06,3,1.82c.72,2.12-1.51,3.16-1.51,3.16S359.61,283.78,353.24,282.23Z" transform="translate(-307.05 -270.54)"/><path class="cls-32" d="M360.53,284.38a1.9,1.9,0,0,0-.61-.89,2.8,2.8,0,0,0-.91-.5,4.4,4.4,0,0,0-1.27-.26h0l-.33,0a6.51,6.51,0,0,1,.74.21,3.54,3.54,0,0,1,1.07.6,2.27,2.27,0,0,1,.74,1.06,2.61,2.61,0,0,1,.15.87c0,.41.12,1,.33.58a1.89,1.89,0,0,0,.23-.91A2.3,2.3,0,0,0,360.53,284.38Z" transform="translate(-307.05 -270.54)"/><path class="cls-33" d="M335.74,314.07h0a50.71,50.71,0,0,0,4.47,4.44c1.09.8,1.61.47,1.7,0a2.28,2.28,0,0,0-.26-1.2,1,1,0,0,1-.37.88h0a.59.59,0,0,1-.29.07h0a1.09,1.09,0,0,1-.43-.11h0a2.53,2.53,0,0,1-.48-.34h0C339.48,317.29,337.72,315.81,335.74,314.07Z" transform="translate(-307.05 -270.54)"/></svg>