<svg id="Layer_1" data-name="Layer 1" xmlns="http://www.w3.org/2000/svg" xmlns:xlink="http://www.w3.org/1999/xlink" viewBox="0 0 228.86 54.05"><defs><style>.cls-1{fill:#00467b;}.cls-2{fill:#e4ab00;}.cls-3{fill:url(#linear-gradient);}.cls-4{fill:url(#linear-gradient-2);}.cls-5{fill:url(#linear-gradient-3);}.cls-6{fill:#a6a6a6;}.cls-7{fill:url(#linear-gradient-4);}.cls-8{fill:url(#linear-gradient-5);}.cls-9{fill:url(#linear-gradient-6);}.cls-10{fill:url(#linear-gradient-7);}.cls-11{fill:url(#linear-gradient-8);}.cls-12{fill:url(#linear-gradient-9);}.cls-13{fill:url(#linear-gradient-10);}.cls-14{fill:url(#linear-gradient-11);}.cls-15{fill:url(#linear-gradient-12);}.cls-16{fill:url(#linear-gradient-13);}.cls-17{fill:url(#linear-gradient-14);}.cls-18{fill:url(#linear-gradient-15);}.cls-19{fill:url(#linear-gradient-16);}.cls-20{fill:url(#linear-gradient-17);}.cls-21{fill:url(#linear-gradient-18);}.cls-22{fill:url(#linear-gradient-19);}.cls-23{fill:url(#linear-gradient-20);}.cls-24{fill:url(#linear-gradient-21);}.cls-25{fill:url(#linear-gradient-22);}.cls-26{fill:url(#linear-gradient-23);}.cls-27{fill:url(#linear-gradient-24);}.cls-28{fill:url(#linear-gradient-25);}.cls-29{fill:url(#linear-gradient-26);}.cls-30{fill:url(#linear-gradient-27);}.cls-31{fill:url(#linear-gradient-28);}.cls-32{fill:url(#linear-gradient-29);}.cls-33{fill:url(#linear-gradient-30);}.cls-34{fill:url(#linear-gradient-31);}</style><linearGradient id="linear-gradient" x1="335.21" y1="271.12" x2="334.59" y2="272.87" gradientUnits="userSpaceOnUse"><stop offset="0" stop-color="#f2d100"/><stop offset="0.86" stop-color="#e4ab00"/></linearGradient><linearGradient id="linear-gradient-2" x1="336.5" y1="274.31" x2="335.07" y2="270.13" gradientUnits="userSpaceOnUse"><stop offset="0" stop-color="#e4ab00"/><stop offset="1" stop-color="#ffeb00"/></linearGradient><linearGradient id="linear-gradient-3" x1="337.78" y1="254.86" x2="349.03" y2="294.19" gradientTransform="translate(8.34 12.84) rotate(1.99)" gradientUnits="userSpaceOnUse"><stop offset="0" stop-color="#e4ab00"/><stop offset="1" stop-color="#c30009"/></linearGradient><linearGradient id="linear-gradient-4" x1="310.24" y1="292.01" x2="316.74" y2="289.92" gradientTransform="matrix(1, 0, 0, 1, 0, 0)" xlink:href="#linear-gradient-3"/><linearGradient id="linear-gradient-5" x1="345.32" y1="283.27" x2="336.6" y2="286.52" gradientTransform="matrix(1, 0, 0, 1, 0, 0)" xlink:href="#linear-gradient-3"/><linearGradient id="linear-gradient-6" x1="352.21" y1="285.66" x2="344.68" y2="285.43" gradientTransform="matrix(1, 0, 0, 1, 0, 0)" xlink:href="#linear-gradient-3"/><linearGradient id="linear-gradient-7" x1="329" y1="286.16" x2="323.09" y2="287.41" gradientTransform="matrix(1, 0, 0, 1, 0, 0)" xlink:href="#linear-gradient-3"/><linearGradient id="linear-gradient-8" x1="340.56" y1="285.62" x2="325.01" y2="287.61" gradientTransform="matrix(1, 0, 0, 1, 0, 0)" xlink:href="#linear-gradient-3"/><linearGradient id="linear-gradient-9" x1="310.06" y1="294.2" x2="324.83" y2="305.52" gradientTransform="matrix(1, 0, 0, 1, 0, 0)" xlink:href="#linear-gradient-3"/><linearGradient id="linear-gradient-10" x1="14.55" y1="32.59" x2="8.35" y2="27.59" gradientTransform="matrix(1, 0, 0, 1, 0, 0)" xlink:href="#linear-gradient-3"/><linearGradient id="linear-gradient-11" x1="324.72" y1="306.99" x2="314.85" y2="297.75" gradientTransform="matrix(1, 0, 0, 1, 0, 0)" xlink:href="#linear-gradient-3"/><linearGradient id="linear-gradient-12" x1="330.38" y1="230.13" x2="323.92" y2="225.26" gradientTransform="translate(-275.87 -224.7) rotate(6.67)" xlink:href="#linear-gradient-3"/><linearGradient id="linear-gradient-13" x1="338.67" y1="319.39" x2="323.99" y2="305.81" gradientTransform="matrix(1, 0, 0, 1, 0, 0)" xlink:href="#linear-gradient-3"/><linearGradient id="linear-gradient-14" x1="341.37" y1="306.9" x2="337.26" y2="294.75" gradientTransform="matrix(1, 0, 0, 1, 0, 0)" xlink:href="#linear-gradient-3"/><linearGradient id="linear-gradient-15" x1="342.59" y1="318.68" x2="338.11" y2="312" gradientUnits="userSpaceOnUse"><stop offset="0" stop-color="#f2d100"/><stop offset="1" stop-color="#e4ab00"/></linearGradient><linearGradient id="linear-gradient-16" x1="350.49" y1="331.8" x2="332.42" y2="285.71" gradientTransform="matrix(1, 0, 0, 1, 0, 0)" xlink:href="#linear-gradient-3"/><linearGradient id="linear-gradient-17" x1="346.14" y1="290.74" x2="274.01" y2="337.13" xlink:href="#linear-gradient-15"/><linearGradient id="linear-gradient-18" x1="352.84" y1="285.64" x2="343.91" y2="291.61" gradientUnits="userSpaceOnUse"><stop offset="0" stop-color="#ffeb00"/><stop offset="1" stop-color="#e4ab00"/></linearGradient><linearGradient id="linear-gradient-19" x1="324.44" y1="308.19" x2="300.94" y2="325.9" gradientTransform="matrix(1, 0, 0, 1, 0, 0)" xlink:href="#linear-gradient-3"/><linearGradient id="linear-gradient-20" x1="369.42" y1="278.7" x2="294.23" y2="331.33" gradientTransform="matrix(1, 0, 0, 1, 0, 0)" xlink:href="#linear-gradient-3"/><linearGradient id="linear-gradient-21" x1="332.41" y1="301.07" x2="317.47" y2="310.1" xlink:href="#linear-gradient-2"/><linearGradient id="linear-gradient-22" x1="330.12" y1="271.85" x2="339.96" y2="304.29" gradientUnits="userSpaceOnUse"><stop offset="0" stop-color="#f2d100"/><stop offset="1" stop-color="#e7b500"/></linearGradient><linearGradient id="linear-gradient-23" x1="322.69" y1="287.76" x2="337.46" y2="268.38" gradientTransform="matrix(1, 0, 0, 1, 0, 0)" xlink:href="#linear-gradient-3"/><linearGradient id="linear-gradient-24" x1="307.48" y1="312.84" x2="335.74" y2="275.76" gradientUnits="userSpaceOnUse"><stop offset="0" stop-color="#e0a100"/><stop offset="1" stop-color="#c30009"/></linearGradient><linearGradient id="linear-gradient-25" x1="311.99" y1="290.86" x2="308.5" y2="292.55" xlink:href="#linear-gradient-2"/><linearGradient id="linear-gradient-26" x1="309.05" y1="293.61" x2="331.05" y2="293.61" xlink:href="#linear-gradient-15"/><linearGradient id="linear-gradient-27" x1="326.37" y1="280.67" x2="311.56" y2="306.44" gradientUnits="userSpaceOnUse"><stop offset="0" stop-color="#f2d100"/><stop offset="1" stop-color="#ffeb00"/></linearGradient><linearGradient id="linear-gradient-28" x1="335.71" y1="292.52" x2="329.45" y2="265.13" gradientUnits="userSpaceOnUse"><stop offset="0" stop-color="#f6de65"/><stop offset="1" stop-color="#ffeb00"/></linearGradient><linearGradient id="linear-gradient-29" x1="358.38" y1="282.48" x2="356.73" y2="284.47" gradientUnits="userSpaceOnUse"><stop offset="0" stop-color="#f2d100"/><stop offset="0.31" stop-color="#ebbf00"/><stop offset="0.69" stop-color="#e6b000"/><stop offset="1" stop-color="#e4ab00"/></linearGradient><linearGradient id="linear-gradient-30" x1="357.4" y1="282.49" x2="362.3" y2="286.73" xlink:href="#linear-gradient-27"/><linearGradient id="linear-gradient-31" x1="336.71" y1="313.87" x2="343.14" y2="320.13" xlink:href="#linear-gradient-28"/></defs><title>logo-cruzeiro</title><path class="cls-1" d="M371.76,292.27a3.62,3.62,0,0,1-2.71.94,3,3,0,0,1-3.42-3.43V284h1.23v5.76a2.54,2.54,0,0,0,.61,1.79,2.13,2.13,0,0,0,1.61.6,2.36,2.36,0,0,0,1.77-.6,2.46,2.46,0,0,0,.53-1.7V284h1.23v5.93A3.31,3.31,0,0,1,371.76,292.27Z" transform="translate(-307.05 -270.54)"/><path class="cls-1" d="M378.33,293.07v-3.95c0-.76-.13-1.62-1.08-1.62a3.13,3.13,0,0,0-1.9.91v4.66h-1.22v-6.52h1l.15.75a3.69,3.69,0,0,1,2.31-.91c.95,0,1.93.64,1.93,2.31v4.37Z" transform="translate(-307.05 -270.54)"/><path class="cls-1" d="M382.4,284.5a.82.82,0,0,1-.81.81.81.81,0,1,1,.81-.81ZM381,293.07v-6.52h1.22v6.52Z" transform="translate(-307.05 -270.54)"/><path class="cls-1" d="M386.63,293.12h-.93l-2.55-6.57h1.26l1.78,5h0l2-5h1.18Z" transform="translate(-307.05 -270.54)"/><path class="cls-1" d="M390.89,290.07a2,2,0,0,0,2.06,2.11,3.25,3.25,0,0,0,1.59-.46l.34.82a3.79,3.79,0,0,1-2.16.67c-2.12,0-3.1-1.67-3.1-3.49s1.09-3.33,2.75-3.33,2.71,1.33,2.71,3.36v.32Zm1.47-2.69a1.58,1.58,0,0,0-1.48,1.74h2.9A1.56,1.56,0,0,0,392.36,287.38Z" transform="translate(-307.05 -270.54)"/><path class="cls-1" d="M399.59,287.74a1.4,1.4,0,0,0-.68-.15,2.23,2.23,0,0,0-1.36.71v4.77h-1.23v-6.52h1l.15.73a2.6,2.6,0,0,1,1.84-.89,1.38,1.38,0,0,1,.74.22Z" transform="translate(-307.05 -270.54)"/><path class="cls-1" d="M402.28,293.21a3.79,3.79,0,0,1-2.1-.54l.44-.92a3.09,3.09,0,0,0,1.64.51c.76,0,1.28-.33,1.28-.88,0-1.45-3-.93-3-3.2,0-1,.75-1.79,2.27-1.79a4.26,4.26,0,0,1,1.72.34v1a4,4,0,0,0-1.68-.4c-.63,0-1.12.22-1.12.75,0,1.31,3,.95,3,3.12C404.8,292.64,403.63,293.21,402.28,293.21Z" transform="translate(-307.05 -270.54)"/><path class="cls-1" d="M407.43,284.5a.82.82,0,0,1-.81.81.81.81,0,1,1,.81-.81ZM406,293.07v-6.52h1.21v6.52Z" transform="translate(-307.05 -270.54)"/><path class="cls-1" d="M411.92,293.21a3.15,3.15,0,0,1-3.42-3.32,3.39,3.39,0,0,1,3.44-3.5,4.8,4.8,0,0,1,1,.09v-3.17h1.23v9.42A4.8,4.8,0,0,1,411.92,293.21Zm1-5.65a2.61,2.61,0,0,0-.92-.14,2.26,2.26,0,0,0-2.28,2.4,2.18,2.18,0,0,0,2.36,2.37,2.48,2.48,0,0,0,.84-.15Z" transform="translate(-307.05 -270.54)"/><path class="cls-1" d="M419.58,293.07l-.26-.62a2.74,2.74,0,0,1-2,.76,2,2,0,0,1-2-2c0-1.3.95-2.08,2.66-2.13l1.27,0v-.25a1.21,1.21,0,0,0-1.35-1.37,2.85,2.85,0,0,0-1.71.57l-.46-.83a3.82,3.82,0,0,1,2.39-.74c1.36,0,2.35.58,2.35,2.26v2.19a7.88,7.88,0,0,0,.14,2.23Zm-.34-3.08-1.19,0c-1.07,0-1.51.4-1.51,1.06a1.07,1.07,0,0,0,1.2,1.1,2.08,2.08,0,0,0,1.5-.63Z" transform="translate(-307.05 -270.54)"/><path class="cls-1" d="M425,293.21a3.16,3.16,0,0,1-3.42-3.32,3.39,3.39,0,0,1,3.45-3.5,4.8,4.8,0,0,1,1,.09v-3.17h1.23v9.42A4.81,4.81,0,0,1,425,293.21Zm1-5.65a2.61,2.61,0,0,0-.92-.14,2.26,2.26,0,0,0-2.28,2.4,2.18,2.18,0,0,0,2.36,2.37A2.48,2.48,0,0,0,426,292Z" transform="translate(-307.05 -270.54)"/><path class="cls-1" d="M429.67,290.07a2,2,0,0,0,2.06,2.11,3.24,3.24,0,0,0,1.58-.46l.35.82a3.84,3.84,0,0,1-2.17.67c-2.12,0-3.1-1.67-3.1-3.49s1.09-3.33,2.76-3.33,2.7,1.33,2.7,3.36v.32Zm1.47-2.69a1.57,1.57,0,0,0-1.48,1.74h2.9A1.56,1.56,0,0,0,431.14,287.38Z" transform="translate(-307.05 -270.54)"/><path class="cls-1" d="M373.68,316.21c-5.88,0-9.21-4-9.21-9.11s3.88-9.38,10-9.38a10.69,10.69,0,0,1,4.7,1l-.05,3.34a8.72,8.72,0,0,0-4.51-1.26c-4.24,0-6.1,2.95-6.1,6.07,0,3.44,2.22,6.15,5.77,6.15a9.07,9.07,0,0,0,4.48-1.23l1,2.62A11.29,11.29,0,0,1,373.68,316.21Z" transform="translate(-307.05 -270.54)"/><path class="cls-1" d="M389.18,306.36a3.32,3.32,0,0,0-1.64-.46,3.64,3.64,0,0,0-2.38,1v9h-3.69V303h3.12l.41,1.34a5.16,5.16,0,0,1,3.55-1.64,3.53,3.53,0,0,1,2,.6Z" transform="translate(-307.05 -270.54)"/><path class="cls-1" d="M400.15,315.93l-.58-1.26a5.71,5.71,0,0,1-3.88,1.54c-1.7,0-4.54-.85-4.54-5.2v-8h3.69v7.82a2.18,2.18,0,0,0,2.3,2.49,3.63,3.63,0,0,0,2.16-.85V303H403V313a11,11,0,0,0,.22,3Z" transform="translate(-307.05 -270.54)"/><path class="cls-1" d="M404.49,315.93l5.8-10.17-4.57.08L405,303h10.71L410,313.14l5.63-.08v2.87Z" transform="translate(-307.05 -270.54)"/><path class="cls-1" d="M419.88,310.49a3.18,3.18,0,0,0,3.45,2.79,6.94,6.94,0,0,0,3.47-.9l.84,2.35a8.76,8.76,0,0,1-4.92,1.48c-4.64,0-6.56-3.29-6.56-6.68,0-3.66,2.19-6.83,6.07-6.83,3.56,0,6,2.65,6,6.67v1.12Zm2.24-5.09A2.46,2.46,0,0,0,419.8,308h4.67A2.43,2.43,0,0,0,422.12,305.4Z" transform="translate(-307.05 -270.54)"/><path class="cls-1" d="M432.4,301.22a2.16,2.16,0,1,1,0-4.32,2.15,2.15,0,0,1,2.24,2.16A2.18,2.18,0,0,1,432.4,301.22Zm-1.86,14.71V303h3.72v12.93Z" transform="translate(-307.05 -270.54)"/><path class="cls-1" d="M444.84,306.36a3.35,3.35,0,0,0-1.64-.46,3.63,3.63,0,0,0-2.38,1v9h-3.69V303h3.12l.41,1.34a5.18,5.18,0,0,1,3.55-1.64,3.53,3.53,0,0,1,2,.6Z" transform="translate(-307.05 -270.54)"/><path class="cls-1" d="M457.35,314.26a6.65,6.65,0,0,1-11.53-4.7,7,7,0,0,1,1.91-4.95,6.53,6.53,0,0,1,4.76-1.91,6.63,6.63,0,0,1,5,1.94,7.39,7.39,0,0,1-.12,9.62Zm-4.92-8.66c-1.94,0-2.84,1.66-2.84,3.88s1.1,3.91,2.93,3.91,2.87-1.7,2.87-3.91S454.29,305.6,452.43,305.6Z" transform="translate(-307.05 -270.54)"/><path class="cls-1" d="M474,316.21c-4,0-7.16-2.33-7.16-6.68,0-4,3-6.83,7.32-6.83a13.64,13.64,0,0,1,1.51.08v-6.2h3.69v18.53A11.64,11.64,0,0,1,474,316.21Zm1.67-10.48a6.53,6.53,0,0,0-1.4-.13,3.47,3.47,0,0,0-3.74,3.74,3.63,3.63,0,0,0,3.74,3.8,7.41,7.41,0,0,0,1.4-.13Z" transform="translate(-307.05 -270.54)"/><path class="cls-1" d="M492.73,314.26a6.65,6.65,0,0,1-11.54-4.7,7,7,0,0,1,1.91-4.95,6.53,6.53,0,0,1,4.76-1.91,6.63,6.63,0,0,1,5,1.94,6.73,6.73,0,0,1,1.72,4.76A6.8,6.8,0,0,1,492.73,314.26Zm-4.92-8.66c-1.95,0-2.85,1.66-2.85,3.88s1.1,3.91,2.93,3.91,2.87-1.7,2.87-3.91S489.67,305.6,487.81,305.6Z" transform="translate(-307.05 -270.54)"/><path class="cls-1" d="M507.07,316.21a10.1,10.1,0,0,1-5.74-1.7l1.44-2.71a7.48,7.48,0,0,0,4.13,1.4c1.32,0,2.79-.49,2.79-1.86,0-2.38-4.37-2.79-6.56-5.28a4.69,4.69,0,0,1-1.15-3.2c0-2.73,2.16-5.14,6.12-5.14a9.17,9.17,0,0,1,4.55,1.1l-.06,3.22a8.87,8.87,0,0,0-4.29-1.31c-1.34,0-2.38.6-2.38,1.64,0,3.12,7.74,2.84,7.74,8.5C513.66,314.15,510.76,316.21,507.07,316.21Z" transform="translate(-307.05 -270.54)"/><path class="cls-1" d="M524.43,315.93l-.58-1.26a5.69,5.69,0,0,1-3.88,1.54c-1.69,0-4.54-.85-4.54-5.2v-8h3.69v7.82a2.18,2.18,0,0,0,2.3,2.49,3.63,3.63,0,0,0,2.16-.85V303h3.72V313a11,11,0,0,0,.22,3Z" transform="translate(-307.05 -270.54)"/><path class="cls-1" d="M533.09,316.21c-2.32,0-3.2-1.32-3.2-3V296.58h3.72v15c0,.88.14,1.29.79,1.29a4.77,4.77,0,0,0,1.05-.14l.46,2.76A5.76,5.76,0,0,1,533.09,316.21Z" transform="translate(-307.05 -270.54)"/><path class="cls-2" d="M347.46,317c-.83-2.22-1.84-5-2.7-7.8-1.62-5.33-3-10.47-2.92-10.49,1-.69,10.29-7,17-10.8.1-.06,2.07-1.16,2.26-2.54a2.42,2.42,0,0,0-.12-1.1c-.33-1-1.18-1.9-3.56-2a67.78,67.78,0,0,0-8.74-.14,82.14,82.14,0,0,0-10.09,1s-1.13-6.89-1.53-9.72a6,6,0,0,0-.5-1.71,2.23,2.23,0,0,0-1.57-1,2.38,2.38,0,0,0-1.87.37,7.13,7.13,0,0,0-1.18,1.41c-1.79,2.51-6.84,10-9.36,14.23,0,0-7.86,2.42-12.64,4.41-1.41.58-1.55,1.29-1.59,1.67s0,1,1.1,1.93c1.4,1.18,5.78,4.79,5.78,4.79-1.55,2.45-7.5,14.59-8.07,18a3.51,3.51,0,0,0,.55,2.91,2.81,2.81,0,0,0,2.07,1c1,0,2.4-1.06,3-1.48,4.73-3.39,14-10.49,14-10.49,3.48,3.13,10.84,9.87,14.74,13.49.45.42,1.89,1.76,3.28,1.78a3.57,3.57,0,0,0,3.66-3A10.17,10.17,0,0,0,347.46,317Zm-36.19-23.79c-.11-.09-.46-.35-.44-.71a.61.61,0,0,1,.32-.47,2.69,2.69,0,0,1,.43-.2,87,87,0,0,1,9.5-2.84c-1.29,2.26-2.16,3.67-2.77,4.72-1.39,2.44-1.38,2.54-1.95,3.54C316.36,297.26,312.27,294,311.27,293.22Zm2.25,19.54c-.12.08-.61.41-.74.48-1.06.51-1.26-.12-1.34-.38a3.25,3.25,0,0,1,.36-1.53c1-2.16,5-10.61,5-10.61S321.75,305,323,306C323,306,315.82,311.19,313.52,312.76Zm25.59-3.12c.83,2.83,1.77,5.78,2.24,7.22a1.27,1.27,0,0,1,0,1c-.12.21-.37.29-.7.14a4.93,4.93,0,0,1-.58-.42l-11.16-9.8L337,302S338.06,306,339.11,309.64Zm-14-5.19-7.13-5.94s4.29-8,5.62-10.08c.83-.23,7.12-1.39,10.09-1.74,0,0,.88,4.88,2.2,10.5C335.85,297.19,327.13,303,325.07,304.45Zm18.85-18.71c2.9-.14,6-.16,6.22-.16.73,0,1.34.07,1.45.39s-.18.91-.7,1.28l-3.74,2.5c-2.87,1.93-6.45,4.28-6.45,4.28s-1.37-6.25-1.64-7.94C339.06,286.09,341.46,285.86,343.92,285.74Zm-13.2-8.23c.06-.08.54-.68.89-.68s.48.42.52.66c.09.53.2,1.3.4,2.55.3,1.84.65,3.95.65,3.95-1.93.38-6.57,1.47-8.1,1.91C326.71,283.22,329.74,278.77,330.72,277.51Z" transform="translate(-307.05 -270.54)"/><path class="cls-3" d="M331.93,272.71s.46-.67.74-1a2.25,2.25,0,0,1,1.8-.93,2.22,2.22,0,0,1,2.29,2c0,.21.14,1,.17,1.18Z" transform="translate(-307.05 -270.54)"/><path class="cls-4" d="M336.93,274h0c0-.22-.14-1-.17-1.18a2.23,2.23,0,0,0-2.21-2h0c.63.22,1.18,1.44,1.25,2.06,0,.3.07.6.11.9a31.85,31.85,0,0,0,.91,4A21.9,21.9,0,0,0,336.93,274Z" transform="translate(-307.05 -270.54)"/><path class="cls-5" d="M336.54,275.19l.43-.08c1,7.56,3.39,19.13,3.39,19.13l-.48.32S337.52,282.93,336.54,275.19Z" transform="translate(-307.05 -270.54)"/><path class="cls-6" d="M340.7,294Z" transform="translate(-307.05 -270.54)"/><path class="cls-7" d="M311.35,291.43c-.28.13-.41.62-.41.62a1.73,1.73,0,0,1,.63-.35,83.83,83.83,0,0,1,9.6-2.85l.35-.56A75.9,75.9,0,0,0,311.35,291.43Z" transform="translate(-307.05 -270.54)"/><path class="cls-8" d="M343.92,285.74l2.32-.09.31-3.46a78,78,0,0,0-8,.87l.49,3S341.46,285.86,343.92,285.74Z" transform="translate(-307.05 -270.54)"/><path class="cls-9" d="M351.41,285.52s-.38-.55-1.65-.59c-3.82,0-7.44.18-10.81.48l.08.5c3.37-.3,7-.48,10.73-.48A15.25,15.25,0,0,1,351.41,285.52Z" transform="translate(-307.05 -270.54)"/><path class="cls-6" d="M340.7,294Z" transform="translate(-307.05 -270.54)"/><path class="cls-10" d="M329.62,284.78c-1.81.42-3.68.87-4.54,1.12l-1.52,2.53c.53-.15,3.3-.68,6-1.13Z" transform="translate(-307.05 -270.54)"/><path class="cls-11" d="M324,287.71l-.34.57c2.91-.64,6.26-1.26,10-1.76l-.09-.5C330,286.5,326.79,287.09,324,287.71Z" transform="translate(-307.05 -270.54)"/><path class="cls-12" d="M309.58,293.23c-.5-.43-.75-.63-.84-.87a1.16,1.16,0,0,1-.05-.2,1.43,1.43,0,0,0-.15.54,1.61,1.61,0,0,0,0,.47h0a1.74,1.74,0,0,0,.14.38,1.81,1.81,0,0,0,.45.57l6.16,5.1.44-.83Z" transform="translate(-307.05 -270.54)"/><polygon class="cls-13" points="9.75 30.18 10.89 27.96 15.66 31.94 14.25 34.03 9.75 30.18"/><path class="cls-14" d="M317.32,299.71l-.42.81s2.7,2.2,6.3,5.33l.68-.5C320.32,302.27,317.32,299.71,317.32,299.71Z" transform="translate(-307.05 -270.54)"/><polygon class="cls-15" points="19.69 38.78 21.89 37.2 28.71 43.19 26.49 44.96 19.69 38.78"/><path class="cls-16" d="M339.49,320.64a80.79,80.79,0,0,0-6.18-6.53c-1.45-1.34-3.21-3.36-5.63-5.46l-.72.52c4.4,3.93,9.26,8.4,12.51,11.48Z" transform="translate(-307.05 -270.54)"/><path class="cls-17" d="M341.83,298.72,337,302h0c.1.38,1.1,4.18,2.1,7.6.1.32.19.65.29,1h0l5.23-1.78C343.14,303.85,341.9,299.11,341.83,298.72Z" transform="translate(-307.05 -270.54)"/><path class="cls-18" d="M335.74,314.06l0,0a54.45,54.45,0,0,0,4.78,5.1c1.68,1.27,2.43.68,2.57-.24.46-3-4.44-11.77-4.44-11.77.08.27,2.47,8.25,2.91,9.63h0a1.77,1.77,0,0,1,.1.58h0a1.14,1.14,0,0,1-.08.46h0a.66.66,0,0,1-.29.33h0a.54.54,0,0,1-.29.07h0a1.1,1.1,0,0,1-.44-.11h0a2.85,2.85,0,0,1-.47-.34h0C339.48,317.28,337.72,315.8,335.74,314.06Z" transform="translate(-307.05 -270.54)"/><path class="cls-19" d="M347.76,318.86c-2.46-5.79-5-15.31-6.28-19.9l-.39.27c1,4.7,3.57,14.42,5.4,19.69a4.05,4.05,0,0,1,.2,1.54,7.39,7.39,0,0,1-.15,1,3.35,3.35,0,0,1-.28.73,3.5,3.5,0,0,1-1.09,1.29,3,3,0,0,1-1.6.55,3.65,3.65,0,0,0,1,.16h.12a3.15,3.15,0,0,0,2.07-.69,3.5,3.5,0,0,0,1-1.37,3.34,3.34,0,0,0,.23-.75,6.09,6.09,0,0,0,.08-1A3.88,3.88,0,0,0,347.76,318.86Z" transform="translate(-307.05 -270.54)"/><path class="cls-20" d="M313.42,315.12c1.5-.88,35.89-25.44,37.92-26.84,1.67-1.16,1.89-2.14,1.6-2.53s-.83-.77-3-.81h0a3.28,3.28,0,0,1,1.45.57c1.23.76-.62,2.14-.62,2.14s-3.15,2.15-7.72,5.15c-3.65,2.4-8.25,5.31-12.66,8.34-8,5.52-16.17,11.66-17.62,12.42-1.21.64-1.74-.3-1.6-1C310.63,313.88,309.36,317.5,313.42,315.12Z" transform="translate(-307.05 -270.54)"/><path class="cls-21" d="M352.41,286.59c.25-.95-1-1.07-1-1.07,1.23.76-.62,2.14-.62,2.14L346,290.87S352.12,287.71,352.41,286.59Z" transform="translate(-307.05 -270.54)"/><path class="cls-22" d="M332.78,303.43c-1.89,1.26-3.6,2.44-4.91,3.42-7.12,5.3-13.23,9.88-16.39,12.26a2.72,2.72,0,0,1-3.13.55,2.23,2.23,0,0,1-1-1,2.51,2.51,0,0,0,1.3,2,2.71,2.71,0,0,0,3.13-.55c3-2.25,5.77-4.41,10.37-7.86l10.63-8.81Z" transform="translate(-307.05 -270.54)"/><path class="cls-23" d="M351.92,291.45v-.06c-3.3,2-11.44,7-16.28,10.47-3.93,2.83-9.19,7-11.83,9.07V311l4.21-3.13C337.33,301.14,347.81,294.11,351.92,291.45Z" transform="translate(-307.05 -270.54)"/><path class="cls-24" d="M314.7,312.82c1.7-.93,4.44-3,8-5.57.89-.65,6.1-4.57,7.08-5.66-7.81,5.4-15.59,11.24-17,12l-.1.05C312.81,313.66,313.23,313.63,314.7,312.82Z" transform="translate(-307.05 -270.54)"/><path class="cls-25" d="M336.2,297c-2.57-11.37-3.45-17.49-3.74-19.53-.08-.58-.29-.78-.57-.82a1.08,1.08,0,0,1,1.35.43c.15.23,1,4.93,1.92,9.63s2.41,9.45,2.41,9.45Z" transform="translate(-307.05 -270.54)"/><path class="cls-26" d="M331.37,276.55a.64.64,0,0,0-.72.2c-.25.36-1.95,2.11-6.18,9.23l0,0c1.12-1.7,4.92-7.42,6.23-8.88C330.72,277.12,331,276.58,331.37,276.55Z" transform="translate(-307.05 -270.54)"/><path class="cls-27" d="M312,310.27c.56-1.36,2.91-7,5.2-11.22s4.3-7.63,5.13-9l0,0c-1.46,2.73-7.77,14.57-10.34,20.23Z" transform="translate(-307.05 -270.54)"/><path class="cls-28" d="M308.56,293.06h0s0-.09,0-.13h0a1.56,1.56,0,0,1,1-1.29h0l4.28-1.85v-.06c-1.54.55-3.05,1.13-4.31,1.68h0a1.55,1.55,0,0,0-1,1.29h0a.49.49,0,0,0,0,.12h0a1.39,1.39,0,0,0,0,.35S308.56,293.09,308.56,293.06Z" transform="translate(-307.05 -270.54)"/><path class="cls-29" d="M309.05,313c.5-.92,8-14.68,10.59-19.33s9.94-17,11.41-19.43l0,0C327.09,280,323,286,319.66,292c-1.78,3.15-3.47,6.21-5,9.06-1.71,3.26-3.19,6.23-4.31,8.72-.53,1.2-1,2.29-1.33,3.26Z" transform="translate(-307.05 -270.54)"/><path class="cls-30" d="M314.68,301.06h0c.48-.89,4.43-8.23,5.8-10.47,1.49-2.65,4.09-6.69,4.56-7.42h0c-.51.93-3.88,7-5.18,9.2C318.69,294.36,315.15,300.28,314.68,301.06Z" transform="translate(-307.05 -270.54)"/><path class="cls-31" d="M331.89,276.61c.28,0,.49.24.57.82.27,1.93,1.07,7.51,3.34,17.74h0c-.3-1.83-2.77-16-3.06-17.89C332.62,276.4,331.89,276.61,331.89,276.61Z" transform="translate(-307.05 -270.54)"/><path class="cls-32" d="M353.24,282.23l1.86.06,2.63.17s2.43.07,3,1.83c.72,2.12-1.52,3.16-1.52,3.16S359.61,283.78,353.24,282.23Z" transform="translate(-307.05 -270.54)"/><path class="cls-33" d="M360.53,284.38a2,2,0,0,0-.61-.89,2.8,2.8,0,0,0-.91-.5,4.59,4.59,0,0,0-1.27-.27h0l-.33,0a4.94,4.94,0,0,1,.74.21,3.45,3.45,0,0,1,1.07.6,2.27,2.27,0,0,1,.74,1.06,2.61,2.61,0,0,1,.15.87c0,.41.12,1,.33.58a1.92,1.92,0,0,0,.23-.91A2.25,2.25,0,0,0,360.53,284.38Z" transform="translate(-307.05 -270.54)"/><path class="cls-34" d="M335.73,314.07h0a52.42,52.42,0,0,0,4.48,4.44c1.09.8,1.61.47,1.7,0a2.39,2.39,0,0,0-.26-1.2,1,1,0,0,1-.37.88h0a.59.59,0,0,1-.29.07h0a1.05,1.05,0,0,1-.43-.11h0a2.53,2.53,0,0,1-.48-.34h0C339.48,317.29,337.72,315.81,335.73,314.07Z" transform="translate(-307.05 -270.54)"/></svg>